<?xml version="1.0" encoding="UTF-8" standalone="no" ?>
<!DOCTYPE svg PUBLIC "-//W3C//DTD SVG 1.1//EN" "http://www.w3.org/Graphics/SVG/1.1/DTD/svg11.dtd">
<svg xmlns="http://www.w3.org/2000/svg" xmlns:xlink="http://www.w3.org/1999/xlink" version="1.1" width="1080" height="1080" viewBox="0 0 1080 1080" xml:space="preserve">
<desc>Created with Fabric.js 4.2.0</desc>
<defs>
</defs>
<g transform="matrix(1 0 0 1 540 540)" id="f5106251-9494-4ad1-ab4c-51675dc5d81b"  >
<rect style="stroke: none; stroke-width: 1; stroke-dasharray: none; stroke-linecap: butt; stroke-dashoffset: 0; stroke-linejoin: miter; stroke-miterlimit: 4; fill: rgb(255,255,255); fill-rule: nonzero; opacity: 1;" vector-effect="non-scaling-stroke"  x="-540" y="-540" rx="0" ry="0" width="1080" height="1080" />
</g>
<g transform="matrix(1 0 0 1 540 540)" id="53829e3f-46c7-4c96-8961-85bb3fa1e5e0"  >
</g>
<g transform="matrix(12.71 0 0 12.71 540 540)"  >
<g style="opacity: 1;" vector-effect="non-scaling-stroke"   >
		<g transform="matrix(1 0 0 1 3.12 0)"  >
<path style="stroke: none; stroke-width: 1; stroke-dasharray: none; stroke-linecap: butt; stroke-dashoffset: 0; stroke-linejoin: miter; stroke-miterlimit: 4; fill: rgb(99,102,241); fill-rule: nonzero; opacity: 1;" vector-effect="non-scaling-stroke"  transform=" translate(-20.62, -16)" d="M 15.258 26.865 C 15.287195558901791 27.949998198195573 14.878907419720376 29.001168985479058 14.125 29.781999999999996 C 13.371569861414523 30.559387314633387 12.335583222000349 30.998743765471293 11.253 31 C 10.17009004490691 31.000349312409178 9.133503042787545 30.56073825092541 8.381 29.782 C 7.6256344588159255 29.002102687091313 7.217098361858628 27.95029351248899 7.247999999999999 26.865000000000002 C 7.257000000000001 26.167 7.448 25.483 7.805000000000001 24.884 C 8.161000000000001 24.284 8.668000000000001 23.79 9.275 23.451 C 9.251000000000001 23.560000000000002 9.365 23.396 9.275 23.451 L 11.135 21.799 C 12.609419104274766 20.229780482454984 13.432928215691971 18.159212651534897 13.438999999999997 16.006000000000004 C 13.439 13.08 11.728 10.105 9.269 8.549 C 9.363 8.604 9.233 8.455 9.269 8.549 C 8.66169186540993 8.209021103249613 8.154939559416857 7.714687505912598 7.800000000000001 7.115999999999999 C 7.443833841153583 6.5162989904059865 7.251735987399606 5.833437679036373 7.242999999999999 5.136 C 7.213420414370575 4.050638687341693 7.6217447888555645 2.9990142171323386 8.375999999999998 2.2180000000000017 C 9.12918841042586 1.440861404166931 10.16476395870813 1.0015263230774822 11.246999999999996 0.9999999999999991 C 12.32995674970721 0.9994202417751445 13.36663009494442 1.4390679209182236 14.119 2.218 C 14.874658580676817 2.997709472358083 15.283244640804295 4.049647281177021 15.251999999999999 5.135 C 15.26241332412278 7.307083717267906 16.10193747810075 9.393195718119848 17.599000000000004 10.967 L 18.416 11.767 C 18.742 12.052 19.084 12.318 19.44 12.565 C 20.061 12.895 20.582 13.391 20.944000000000003 13.995999999999999 C 21.4916254644526 14.911267140354285 21.640718620927615 16.010810583742522 21.356597992564836 17.03885876163497 C 21.072477364202058 18.066906939527414 20.379910629621385 18.933841695641167 19.44 19.438 C 19.473000000000003 19.371 19.377000000000002 19.474 19.44 19.438 C 18.1838419608947 20.23205778088875 17.144702467259844 21.325834569327817 16.415999999999997 22.621000000000002 C 15.685500114765155 23.9183519689364 15.28765800255685 25.37641926100207 15.258 26.864999999999995 z M 19.741 5.123 C 19.741 5.9190000000000005 19.976 6.698 20.416999999999998 7.36 C 20.856437296428986 8.021073352590975 21.482192138974813 8.53685125951696 22.214999999999996 8.842 C 23.71248837716126 9.465546471866828 25.438427163279005 9.120437777345346 26.580999999999996 7.968999999999999 C 27.72654470882445 6.814899427063465 28.06895332091464 5.086701299758988 27.449999999999996 3.583 C 27.147291155221414 2.8483617753714547 26.633667994775745 2.219904168484679 25.973999999999997 1.7769999999999992 C 24.385560801748028 0.7112382128830719 22.264495076541337 0.9213319116431644 20.915999999999997 2.277999999999999 C 20.16407015801596 3.0340029180239894 19.741679783211328 4.056726846806267 19.740999999999996 5.123000000000001 z M 23.748 22.84 C 22.956 22.84 22.181 23.076 21.522000000000002 23.518 C 20.862372767526516 23.960948948820477 20.348760843847863 24.589392806654924 20.046000000000003 25.324 C 19.426599241479614 26.827980191758044 19.769035636609768 28.556712603076775 20.915000000000003 29.711000000000002 C 22.057572836720993 30.86243777734535 23.78351162283874 31.20754647186683 25.281000000000006 30.584000000000003 C 26.01444221676813 30.278481513242486 26.640593582929696 29.76196754582516 27.08 29.1 C 28.14119560748081 27.5021763941457 27.932242203717788 25.378373998298365 26.58 24.018 C 25.830362430332126 23.263887186200026 24.81131602631049 22.839284517857678 23.747999999999994 22.838 z M 34 15.994 C 34 15.198 33.765 14.42 33.325 13.758 C 32.88571110507242 13.096556101000045 32.25994118215818 12.580417727428403 31.527 12.274999999999999 C 30.02923402753083 11.651000292262804 28.302756235314135 11.996137712140333 27.16 13.147999999999998 C 26.014035636609766 14.302287396923223 25.671599241479612 16.031019808241957 26.291 17.534999999999997 C 26.593708844778583 18.269638224628544 27.10733200522425 18.898095831515317 27.767000000000003 19.340999999999998 C 28.425231869692546 19.78298699355197 29.200143331602906 20.01901123936294 29.992999999999995 20.019 C 31.056249634447006 20.017384695758206 32.07517430172657 19.59283275105839 32.824999999999996 18.839 C 33.57698912974161 18.082628429083023 33.99936655129756 17.05957639355262 34 15.993000000000002 z" stroke-linecap="round" />
</g>
		<g transform="matrix(1 0 0 1 -12.49 -0.01)"  >
<path style="stroke: none; stroke-width: 1; stroke-dasharray: none; stroke-linecap: butt; stroke-dashoffset: 0; stroke-linejoin: miter; stroke-miterlimit: 4; fill: rgb(99,102,241); fill-rule: nonzero; opacity: 1;" vector-effect="non-scaling-stroke"  transform=" translate(-5.01, -15.99)" d="M 5.007 11.969 C 4.2139999999999995 11.969 3.4399999999999995 12.205 2.7809999999999997 12.647 C 2.121219528549445 13.090215187946853 1.6075926066810649 13.719025382944253 1.3050000000000006 14.453999999999999 C 0.686046679085355 15.957701299758988 1.0284552911755482 17.685899427063465 2.173999999999999 18.84 C 3.318054414394183 19.98867903622205 5.042204792424674 20.33343013105041 6.539999999999998 19.713 C 7.272909813137058 19.40753020966094 7.898665961464533 18.891403197442006 8.338 18.23 C 9.398491558531802 16.6327014316552 9.189553675628778 14.509892541360493 7.837999999999999 13.150000000000002 C 7.08852056508502 12.39613861139742 6.070024613410878 11.971255630497682 5.007000000000001 11.969000000000001 z" stroke-linecap="round" />
</g>
</g>
</g>
<g transform="matrix(1.67 0 0 1.67 619.63 400.54)" id="5bc1c5fb-470c-4e8b-a64c-eee057fcd7cc"  >
<circle style="stroke: rgb(0,0,0); stroke-width: 0; stroke-dasharray: none; stroke-linecap: butt; stroke-dashoffset: 0; stroke-linejoin: miter; stroke-miterlimit: 4; fill: rgb(255,255,255); fill-rule: nonzero; opacity: 1;" vector-effect="non-scaling-stroke"  cx="0" cy="0" r="35" />
</g>
<g transform="matrix(1.61 0 0 1.61 620.35 678.01)" id="8606c8f1-b200-4172-97da-a45a8914c980"  >
<circle style="stroke: rgb(0,0,0); stroke-width: 0; stroke-dasharray: none; stroke-linecap: butt; stroke-dashoffset: 0; stroke-linejoin: miter; stroke-miterlimit: 4; fill: rgb(255,255,255); fill-rule: nonzero; opacity: 1;" vector-effect="non-scaling-stroke"  cx="0" cy="0" r="35" />
</g>
</svg>